<svg id="Layer_1" xmlns="http://www.w3.org/2000/svg" viewBox="0 0 397 115"><style>.st0{fill:#1885D9;} .st1{fill:#DE4429;} .st2{fill:#505959;}</style><path class="st0" d="M56.4 10.7c-25.8 0-46.8 20.9-46.8 46.8 0 25.8 20.9 46.8 46.8 46.8 25.8 0 46.8-20.9 46.8-46.8-.1-25.9-21-46.8-46.8-46.8zm0 83.7c-20.4 0-37-16.6-37-37s16.6-37 37-37 37 16.6 37 37-16.6 37-37 37z"/><path class="st1" d="M56.4 10.2c-13.7 0-23.5 6.5-23.5 6.5v80.4l23.5-14 23.5 14V16.7s-9.8-6.5-23.5-6.5z"/><path class="st2" d="M122.3 57.8c3-3.1 6.8-4.6 11.5-4.6 6.2 0 10.8 2.1 13.7 6.2 1.6 2.3 2.4 4.6 2.6 7h-7.8c-.5-1.8-1.1-3.1-1.9-4.1-1.4-1.6-3.5-2.4-6.2-2.4-2.8 0-5 1.1-6.6 3.4s-2.4 5.5-2.4 9.7.8 7.3 2.5 9.4 3.9 3.1 6.5 3.1c2.7 0 4.7-.9 6.1-2.7.8-1 1.4-2.4 1.9-4.3h7.8c-.7 4.1-2.4 7.4-5.1 10-2.8 2.6-6.3 3.8-10.6 3.8-5.3 0-9.5-1.7-12.6-5.2-3-3.5-4.6-8.2-4.6-14.3 0-6.5 1.7-11.5 5.2-15zM171.1 63h.6v7.4c-.5-.1-.9-.1-1.2-.1h-.9c-2.9 0-4.9.9-5.9 2.8-.6 1.1-.8 2.7-.8 4.9v13.2h-7.3V63.6h6.9v4.8c1.1-1.8 2.1-3.1 2.9-3.8 1.4-1.1 3.1-1.7 5.3-1.7.2.1.3.1.4.1zM199 87.9c-2.3 2.9-5.9 4.3-10.6 4.3s-8.3-1.4-10.6-4.3-3.5-6.4-3.5-10.4 1.2-7.4 3.5-10.4c2.3-2.9 5.9-4.4 10.6-4.4s8.3 1.5 10.6 4.4 3.5 6.4 3.5 10.4-1.2 7.5-3.5 10.4zm-5.8-4c1.1-1.5 1.7-3.6 1.7-6.4s-.6-4.9-1.7-6.4-2.8-2.2-4.9-2.2-3.7.7-4.9 2.2-1.7 3.6-1.7 6.4.6 4.9 1.7 6.4 2.8 2.3 4.9 2.3 3.8-.8 4.9-2.3zM213.3 82.5c.2 1.3.5 2.2 1 2.7.9 1 2.6 1.4 5 1.4 1.4 0 2.6-.2 3.4-.6.8-.4 1.3-1.1 1.3-1.9s-.3-1.4-1-1.9c-.7-.4-3.2-1.2-7.6-2.2-3.1-.8-5.4-1.8-6.6-2.9-1.3-1.2-1.9-2.8-1.9-5 0-2.6 1-4.8 3-6.6 2-1.8 4.8-2.8 8.5-2.8 3.5 0 6.3.7 8.5 2.1s3.4 3.8 3.8 7.1h-7.2c-.1-.9-.4-1.7-.8-2.2-.8-1-2.2-1.5-4.1-1.5-1.6 0-2.7.2-3.4.7s-1 1.1-1 1.7c0 .8.4 1.4 1.1 1.8.7.4 3.2 1.1 7.6 2 2.9.7 5 1.7 6.5 3.1 1.4 1.4 2.1 3.1 2.1 5.2 0 2.7-1 5-3.1 6.7-2 1.7-5.2 2.6-9.5 2.6-4.4 0-7.6-.9-9.7-2.8-2.1-1.8-3.1-4.2-3.1-7h7.2v.3zM242.2 82.5c.2 1.3.5 2.2 1 2.7.9 1 2.6 1.4 5 1.4 1.4 0 2.6-.2 3.4-.6.8-.4 1.3-1.1 1.3-1.9s-.3-1.4-1-1.9c-.7-.4-3.2-1.2-7.6-2.2-3.1-.8-5.4-1.8-6.6-2.9-1.3-1.2-1.9-2.8-1.9-5 0-2.6 1-4.8 3-6.6 2-1.8 4.8-2.8 8.5-2.8 3.5 0 6.3.7 8.5 2.1 2.2 1.4 3.4 3.8 3.8 7.1h-7.2c-.1-.9-.4-1.7-.8-2.2-.8-1-2.2-1.5-4.1-1.5-1.6 0-2.7.2-3.4.7s-1 1.1-1 1.7c0 .8.4 1.4 1.1 1.8.7.4 3.2 1.1 7.6 2 2.9.7 5 1.7 6.5 3.1 1.4 1.4 2.1 3.1 2.1 5.2 0 2.7-1 5-3.1 6.7-2 1.7-5.2 2.6-9.5 2.6-4.4 0-7.6-.9-9.7-2.8-2.1-1.8-3.1-4.2-3.1-7h7.2v.3zM300.1 63.8c1.2.5 2.3 1.3 3.2 2.5.8 1 1.3 2.2 1.6 3.6.2.9.3 2.3.3 4.1l-.1 17.4h-7.4V73.8c0-1-.2-1.9-.5-2.6-.6-1.3-1.8-1.9-3.6-1.9-2 0-3.4.8-4.1 2.5-.4.9-.6 1.9-.6 3.2v16.5h-7.3V74.8c0-1.6-.2-2.8-.5-3.6-.6-1.3-1.8-2-3.6-2-2.1 0-3.5.7-4.2 2-.4.8-.6 1.9-.6 3.4v16.7h-7.3V63.8h7v4c.9-1.4 1.7-2.5 2.5-3.1 1.4-1.1 3.2-1.6 5.5-1.6 2.1 0 3.8.5 5.1 1.4 1 .9 1.8 2 2.4 3.3.9-1.6 2.1-2.8 3.5-3.6 1.5-.8 3.1-1.1 5-1.1 1.3-.1 2.5.1 3.7.7zM322.7 74.5c1.3-.2 2.3-.4 2.9-.6 1-.4 1.6-1.1 1.6-2.1 0-1.1-.4-1.9-1.2-2.3s-2-.6-3.5-.6c-1.7 0-3 .4-3.7 1.3-.5.6-.9 1.5-1 2.5h-7c.2-2.4.8-4.4 2-6 1.9-2.4 5.2-3.7 9.9-3.7 3 0 5.7.6 8.1 1.8 2.4 1.2 3.5 3.5 3.5 6.8v12.7c0 .9 0 1.9.1 3.2.1.9.2 1.6.4 1.9.2.3.6.6 1.1.8v1.1H328c-.2-.6-.4-1.1-.5-1.6s-.2-1-.2-1.7c-1 1.1-2.2 2-3.5 2.8-1.6.9-3.3 1.3-5.3 1.3-2.5 0-4.6-.7-6.2-2.1s-2.5-3.5-2.5-6.1c0-3.4 1.3-5.9 4-7.4 1.4-.8 3.6-1.4 6.4-1.8l2.5-.2zm4.5 3.3c-.5.3-.9.5-1.4.7s-1.1.3-1.9.5l-1.6.3c-1.5.3-2.7.6-3.3 1-1.1.7-1.7 1.7-1.7 3.1 0 1.2.3 2.1 1 2.7s1.5.8 2.5.8c1.6 0 3-.5 4.4-1.4 1.3-.9 2-2.6 2.1-5v-2.7h-.1zM356.1 63h.6v7.4c-.5-.1-.9-.1-1.2-.1h-.9c-2.9 0-4.9.9-5.9 2.8-.6 1.1-.8 2.7-.8 4.9v13.2h-7.3V63.6h6.9v4.8c1.1-1.8 2.1-3.1 2.9-3.8 1.4-1.1 3.1-1.7 5.3-1.7.2.1.3.1.4.1zM360.9 54h7.1v20.2l9.1-10.4h9l-9.9 10.3 10.3 17.2h-8.8L371 79.5l-3 3.1v8.7h-7.1V54z"/></svg>