<svg id="Grey_Logo-5_Grey_" data-name="Grey Logo-5 (Grey)" xmlns="http://www.w3.org/2000/svg" xmlns:xlink="http://www.w3.org/1999/xlink" viewBox="0 0 100 100"><defs><style>.cls-1{stroke:#948f8f;stroke-miterlimit:10;stroke-width:0.75px;fill:url(#linear-gradient);}.cls-2{fill:#989898;}.cls-3{fill:#747474;}.cls-4{fill:#535353;}.cls-5{fill:#9c9c9c;}</style><linearGradient id="linear-gradient" x1="50" y1="15.18" x2="50" y2="94.72" gradientUnits="userSpaceOnUse"><stop offset="0" stop-color="#fff"/><stop offset="1" stop-color="#c4c4c4"/></linearGradient></defs><title>CROSSMARK_logo_3_Test</title><rect class="cls-1" x="5" y="5" width="90" height="90" rx="2" ry="2"/><polygon class="cls-2" points="39.35 44.45 60.65 30.25 60.65 13.22 39.35 13.22 39.35 44.45"/><polygon class="cls-3" points="60.65 44.45 39.35 30.25 39.35 13.22 60.65 13.22 60.65 44.45"/><path class="cls-4" d="M50,9.5A23.5,23.5,0,1,0,73.5,33,23.5,23.5,0,0,0,50,9.5Zm0,41.25A17.75,17.75,0,1,1,67.75,33,17.75,17.75,0,0,1,50,50.75Z"/><path class="cls-5" d="M63,45A17.73,17.73,0,0,1,33.54,26.4l-4.92-3.11A23.48,23.48,0,0,0,68,48.14Z"/><path class="cls-4" d="M26.09,65.46a3.51,3.51,0,0,0-.31-0.8,2.23,2.23,0,0,0-.5-0.63,2.28,2.28,0,0,0-.72-0.41,2.87,2.87,0,0,0-1-.15,2.79,2.79,0,0,0-1.38.32,2.69,2.69,0,0,0-.95.86,3.83,3.83,0,0,0-.54,1.23,5.66,5.66,0,0,0,0,2.8,3.82,3.82,0,0,0,.54,1.22,2.69,2.69,0,0,0,.95.86,2.79,2.79,0,0,0,1.38.32,2.5,2.5,0,0,0,1-.2,2.31,2.31,0,0,0,.77-0.56,2.62,2.62,0,0,0,.5-0.83,4,4,0,0,0,.24-1h1.71a4.74,4.74,0,0,1-.38,1.64,4,4,0,0,1-.89,1.28,3.92,3.92,0,0,1-1.31.83,4.56,4.56,0,0,1-1.67.29,4.71,4.71,0,0,1-2-.41A4.43,4.43,0,0,1,20.08,71a5,5,0,0,1-.94-1.67,6.36,6.36,0,0,1,0-4,5,5,0,0,1,.94-1.67,4.5,4.5,0,0,1,1.51-1.13,4.64,4.64,0,0,1,2-.42,5.3,5.3,0,0,1,1.58.23,4.11,4.11,0,0,1,1.31.67A3.49,3.49,0,0,1,27.4,64a3.68,3.68,0,0,1,.43,1.44H26.09Z"/><path class="cls-4" d="M29.22,62.28h1.6V66h0a2.34,2.34,0,0,1,.88-0.82A2.58,2.58,0,0,1,33,64.85a2.71,2.71,0,0,1,1.88.62,2.36,2.36,0,0,1,.69,1.85v5H34V67.73a2,2,0,0,0-.36-1.24,1.33,1.33,0,0,0-1.05-.38,1.72,1.72,0,0,0-.73.15,1.57,1.57,0,0,0-.54.41,1.93,1.93,0,0,0-.35.61,2.17,2.17,0,0,0-.12.74v4.27h-1.6v-10Z"/><path class="cls-4" d="M38.51,69.07a2.82,2.82,0,0,0,.12.81,2,2,0,0,0,.36.69,1.72,1.72,0,0,0,.6.47,2,2,0,0,0,.87.17,1.91,1.91,0,0,0,1.13-.3,1.79,1.79,0,0,0,.64-0.9h1.51a3,3,0,0,1-1.18,1.83,3.2,3.2,0,0,1-1,.48,3.92,3.92,0,0,1-1.13.16,3.84,3.84,0,0,1-1.51-.28,3.12,3.12,0,0,1-1.11-.78,3.31,3.31,0,0,1-.69-1.2,4.94,4.94,0,0,1-.23-1.54,4.35,4.35,0,0,1,.25-1.46,3.74,3.74,0,0,1,.7-1.22,3.28,3.28,0,0,1,2.55-1.14,3.25,3.25,0,0,1,1.53.36,3.37,3.37,0,0,1,1.13.95,3.81,3.81,0,0,1,.65,1.35,4.13,4.13,0,0,1,.11,1.57H38.51Zm3.72-1a2.63,2.63,0,0,0-.16-0.73,2,2,0,0,0-.37-0.61,1.79,1.79,0,0,0-.56-0.42,1.64,1.64,0,0,0-.73-0.16,1.92,1.92,0,0,0-.76.15,1.76,1.76,0,0,0-.59.41,2,2,0,0,0-.39.61,2.14,2.14,0,0,0-.16.76h3.72Z"/><path class="cls-4" d="M49.93,67.46a1.49,1.49,0,0,0-.54-1,1.75,1.75,0,0,0-1.11-.34,2.27,2.27,0,0,0-.66.11,1.54,1.54,0,0,0-.64.39,2.21,2.21,0,0,0-.49.8,3.8,3.8,0,0,0-.2,1.34,3.9,3.9,0,0,0,.11.9,2.41,2.41,0,0,0,.34.8,1.81,1.81,0,0,0,.59.57,1.7,1.7,0,0,0,.88.22,1.6,1.6,0,0,0,1.15-.43,2,2,0,0,0,.57-1.22h1.6a3.51,3.51,0,0,1-1.07,2.16,3.27,3.27,0,0,1-2.25.75,3.7,3.7,0,0,1-1.51-.29,3.16,3.16,0,0,1-1.1-.78,3.33,3.33,0,0,1-.68-1.18,4.61,4.61,0,0,1-.23-1.48,5.09,5.09,0,0,1,.22-1.53A3.5,3.5,0,0,1,45.59,66a3.15,3.15,0,0,1,1.11-.83,3.77,3.77,0,0,1,1.56-.3,4.35,4.35,0,0,1,1.2.16,3.15,3.15,0,0,1,1,.48,2.57,2.57,0,0,1,.72.81,2.82,2.82,0,0,1,.34,1.16h-1.6Z"/><path class="cls-4" d="M52.87,62.28h1.6V68L57.35,65h2L56.54,67.7l3,4.58H57.63l-2.21-3.51-1,.92v2.59h-1.6v-10Z"/><path class="cls-4" d="M63.52,65h1.19v-0.6a3.06,3.06,0,0,1,.17-1.11,1.56,1.56,0,0,1,.45-0.66A1.47,1.47,0,0,1,66,62.36a3.59,3.59,0,0,1,.75-0.08,4.55,4.55,0,0,1,1.12.1v1.25l-0.33-.06-0.41,0a1,1,0,0,0-.55.15,0.68,0.68,0,0,0-.23.6V65h1.36v1.19H66.31v6h-1.6v-6H63.52V65Z"/><path class="cls-4" d="M72,72.48a3.93,3.93,0,0,1-1.55-.29,3.3,3.3,0,0,1-1.15-.79,3.4,3.4,0,0,1-.71-1.2,4.66,4.66,0,0,1-.24-1.54,4.62,4.62,0,0,1,.24-1.53,3.4,3.4,0,0,1,.71-1.2,3.3,3.3,0,0,1,1.15-.79,4.31,4.31,0,0,1,3.09,0,3.31,3.31,0,0,1,1.15.79,3.37,3.37,0,0,1,.71,1.2,4.57,4.57,0,0,1,.24,1.53,4.61,4.61,0,0,1-.24,1.54,3.37,3.37,0,0,1-.71,1.2,3.31,3.31,0,0,1-1.15.79A3.94,3.94,0,0,1,72,72.48Zm0-1.26A1.83,1.83,0,0,0,72.89,71a1.94,1.94,0,0,0,.64-0.59,2.54,2.54,0,0,0,.37-0.82,3.67,3.67,0,0,0,0-1.86,2.46,2.46,0,0,0-.37-0.82,2,2,0,0,0-.64-0.58,2,2,0,0,0-1.85,0,2,2,0,0,0-.64.58,2.46,2.46,0,0,0-.37.82,3.67,3.67,0,0,0,0,1.86,2.54,2.54,0,0,0,.37.82A1.93,1.93,0,0,0,71,71,1.82,1.82,0,0,0,72,71.22Z"/><path class="cls-4" d="M76.95,65h1.5v1.4h0a1.6,1.6,0,0,1,.27-0.57,2.72,2.72,0,0,1,.49-0.51A2.49,2.49,0,0,1,79.88,65a1.93,1.93,0,0,1,.71-0.14H81l0.22,0v1.54l-0.34,0-0.34,0a1.83,1.83,0,0,0-.76.16,1.75,1.75,0,0,0-.62.48,2.38,2.38,0,0,0-.42.78,3.4,3.4,0,0,0-.15,1.06v3.44h-1.6V65Z"/><path class="cls-4" d="M30.54,85.28H29v-1h0a2.17,2.17,0,0,1-.87.88,2.37,2.37,0,0,1-1.18.33,2.66,2.66,0,0,1-2.07-.71,3.11,3.11,0,0,1-.64-2.13V78h1.6v4.44a2,2,0,0,0,.37,1.34,1.32,1.32,0,0,0,1,.39A2,2,0,0,0,28,84.06a1.49,1.49,0,0,0,.55-0.41,1.6,1.6,0,0,0,.3-0.62,3.23,3.23,0,0,0,.09-0.78V78h1.6v7.24Z"/><path class="cls-4" d="M32.26,78h1.51v1h0a2,2,0,0,1,.94-0.9,3.12,3.12,0,0,1,1.3-.27,3.46,3.46,0,0,1,1.49.3,2.94,2.94,0,0,1,1.06.83,3.57,3.57,0,0,1,.63,1.22,5.17,5.17,0,0,1,.21,1.5,5.34,5.34,0,0,1-.19,1.41,3.7,3.7,0,0,1-.57,1.21,2.8,2.8,0,0,1-2.36,1.16,4,4,0,0,1-.7-0.06,3.07,3.07,0,0,1-.67-0.2,2.65,2.65,0,0,1-.59-0.36,2,2,0,0,1-.46-0.51h0V88h-1.6V78Zm5.57,3.63a3.6,3.6,0,0,0-.12-1,2.59,2.59,0,0,0-.38-0.82,2,2,0,0,0-.63-0.57,1.72,1.72,0,0,0-.87-0.22,1.76,1.76,0,0,0-1.52.7,3.09,3.09,0,0,0-.51,1.86,3.66,3.66,0,0,0,.13,1,2.26,2.26,0,0,0,.4.8A2,2,0,0,0,35,84a1.82,1.82,0,0,0,.86.2A1.78,1.78,0,0,0,36.75,84a1.93,1.93,0,0,0,.62-0.58,2.3,2.3,0,0,0,.35-0.81A4.11,4.11,0,0,0,37.83,81.67Z"/><path class="cls-4" d="M47.59,85.28H46.07v-1h0a1.89,1.89,0,0,1-.94.9,3.16,3.16,0,0,1-1.3.27,3.47,3.47,0,0,1-1.49-.3,3,3,0,0,1-1.06-.82,3.49,3.49,0,0,1-.63-1.22,5.29,5.29,0,0,1-.21-1.52,4.84,4.84,0,0,1,.27-1.69,3.42,3.42,0,0,1,.71-1.18,2.75,2.75,0,0,1,1-.68,3.22,3.22,0,0,1,1.16-.22,3.88,3.88,0,0,1,.69.06,3.07,3.07,0,0,1,.67.2,2.66,2.66,0,0,1,.6.36A2,2,0,0,1,46,79h0v-3.7h1.6v10ZM42,81.74a3.58,3.58,0,0,0,.12.91,2.5,2.5,0,0,0,.37.8,1.84,1.84,0,0,0,.62.56,2,2,0,0,0,1.81,0,1.88,1.88,0,0,0,.63-0.59,2.66,2.66,0,0,0,.37-0.82A3.73,3.73,0,0,0,46,81.65a2.92,2.92,0,0,0-.54-1.88A1.78,1.78,0,0,0,44,79.11a1.8,1.8,0,0,0-.95.23,1.94,1.94,0,0,0-.63.6,2.53,2.53,0,0,0-.35.84A4.37,4.37,0,0,0,42,81.74Z"/><path class="cls-4" d="M55.38,83.67a0.86,0.86,0,0,0,.08.42,0.32,0.32,0,0,0,.3.13h0.17l0.22,0v1.11l-0.22.06-0.27.06-0.28,0H55.15a1.54,1.54,0,0,1-.81-0.2,1,1,0,0,1-.42-0.69,2.83,2.83,0,0,1-1.17.67,4.6,4.6,0,0,1-1.34.21,3.3,3.3,0,0,1-.94-0.13A2.46,2.46,0,0,1,49.68,85a1.85,1.85,0,0,1-.55-0.66,2,2,0,0,1-.2-0.93,2.14,2.14,0,0,1,.25-1.09,1.81,1.81,0,0,1,.64-0.66,2.92,2.92,0,0,1,.9-0.34q0.5-.11,1-0.16c0.29-.06.56-0.1,0.82-0.12a3.75,3.75,0,0,0,.69-0.12,1.06,1.06,0,0,0,.48-0.26,0.71,0.71,0,0,0,.18-0.52,0.81,0.81,0,0,0-.15-0.5,1,1,0,0,0-.36-0.3,1.6,1.6,0,0,0-.48-0.14,3.86,3.86,0,0,0-.5,0,2,2,0,0,0-1.11.28,1.1,1.1,0,0,0-.49.87H49.2a2.42,2.42,0,0,1,.34-1.16,2.32,2.32,0,0,1,.75-0.74,3.05,3.05,0,0,1,1-.39,6.08,6.08,0,0,1,1.18-.11,4.91,4.91,0,0,1,1,.11,3,3,0,0,1,.93.36,2,2,0,0,1,.67.65,1.78,1.78,0,0,1,.25,1v3.72Zm-1.6-2a1.92,1.92,0,0,1-.89.29q-0.53,0-1.06.15a3.39,3.39,0,0,0-.49.12,1.49,1.49,0,0,0-.42.21,0.92,0.92,0,0,0-.29.35,1.19,1.19,0,0,0-.11.53,0.66,0.66,0,0,0,.15.45,1.12,1.12,0,0,0,.37.29,1.71,1.71,0,0,0,.48.15,3,3,0,0,0,.47,0,2.59,2.59,0,0,0,.57-0.07,1.9,1.9,0,0,0,.58-0.24,1.52,1.52,0,0,0,.46-0.43,1.08,1.08,0,0,0,.18-0.64V81.65Z"/><path class="cls-4" d="M56.38,78h1.2V75.87h1.6V78h1.44v1.19H59.18V83.1a3.91,3.91,0,0,0,0,.43,0.75,0.75,0,0,0,.1.31,0.47,0.47,0,0,0,.23.19,1.14,1.14,0,0,0,.42.06h0.34a1.64,1.64,0,0,0,.34,0v1.23l-0.52.06-0.52,0a3.55,3.55,0,0,1-1-.12,1.36,1.36,0,0,1-.6-0.35,1.2,1.2,0,0,1-.29-0.58,4.28,4.28,0,0,1-.09-0.8V79.23h-1.2V78Z"/><path class="cls-4" d="M63,82.07a2.83,2.83,0,0,0,.12.81,2,2,0,0,0,.36.69,1.72,1.72,0,0,0,.6.47,2,2,0,0,0,.87.17,1.91,1.91,0,0,0,1.13-.3,1.79,1.79,0,0,0,.64-0.9h1.51a3,3,0,0,1-1.18,1.83,3.2,3.2,0,0,1-1,.48,3.92,3.92,0,0,1-1.13.16,3.84,3.84,0,0,1-1.51-.28,3.12,3.12,0,0,1-1.11-.78,3.31,3.31,0,0,1-.69-1.2,4.94,4.94,0,0,1-.23-1.54,4.35,4.35,0,0,1,.25-1.46,3.74,3.74,0,0,1,.7-1.22,3.28,3.28,0,0,1,2.55-1.14,3.25,3.25,0,0,1,1.53.36,3.37,3.37,0,0,1,1.13.95,3.81,3.81,0,0,1,.65,1.35,4.13,4.13,0,0,1,.11,1.57H63Zm3.72-1a2.63,2.63,0,0,0-.16-0.73,2,2,0,0,0-.37-0.61,1.79,1.79,0,0,0-.56-0.42,1.64,1.64,0,0,0-.73-0.16,1.92,1.92,0,0,0-.76.15,1.76,1.76,0,0,0-.59.41,2,2,0,0,0-.39.61A2.14,2.14,0,0,0,63,81h3.72Z"/><path class="cls-4" d="M70.76,83a1.2,1.2,0,0,0,.53,1,2.09,2.09,0,0,0,1.11.28,4.28,4.28,0,0,0,.51,0A2.25,2.25,0,0,0,73.45,84a1,1,0,0,0,.41-0.29,0.69,0.69,0,0,0,.15-0.5,0.71,0.71,0,0,0-.22-0.5,1.57,1.57,0,0,0-.54-0.32,5.43,5.43,0,0,0-.75-0.2l-0.85-.18a7.94,7.94,0,0,1-.86-0.24A2.74,2.74,0,0,1,70,81.44a1.75,1.75,0,0,1-.53-0.61,2,2,0,0,1-.2-0.92,1.64,1.64,0,0,1,.29-1,2.2,2.2,0,0,1,.73-0.64,3.16,3.16,0,0,1,1-.34,5.75,5.75,0,0,1,1-.1,4.74,4.74,0,0,1,1.07.12,2.9,2.9,0,0,1,.92.38A2.26,2.26,0,0,1,75,79a2.4,2.4,0,0,1,.34,1H73.7a1,1,0,0,0-.53-0.77,2.18,2.18,0,0,0-.95-0.2l-0.4,0a1.89,1.89,0,0,0-.44.1,0.92,0.92,0,0,0-.34.22,0.53,0.53,0,0,0-.14.38,0.61,0.61,0,0,0,.2.48,1.6,1.6,0,0,0,.53.3,5.3,5.3,0,0,0,.75.2L73.26,81q0.43,0.1.86,0.24a2.75,2.75,0,0,1,.75.38,1.83,1.83,0,0,1,.53.6,1.8,1.8,0,0,1,.2.9,2,2,0,0,1-.29,1.09,2.32,2.32,0,0,1-.76.73,3.47,3.47,0,0,1-1,.41,5.27,5.27,0,0,1-1.13.13,4.93,4.93,0,0,1-1.27-.15,3,3,0,0,1-1-.47,2.24,2.24,0,0,1-.67-0.78A2.49,2.49,0,0,1,69.16,83h1.6Z"/></svg>